<?xml version="1.0" encoding="UTF-8" standalone="no"?><!DOCTYPE svg PUBLIC "-//W3C//DTD SVG 1.1//EN" "http://www.w3.org/Graphics/SVG/1.1/DTD/svg11.dtd"><svg width="100%" height="100%" viewBox="758.48 1354.02 4883.04 6392.90" version="1.1" xmlns="http://www.w3.org/2000/svg" xmlns:xlink="http://www.w3.org/1999/xlink" xml:space="preserve" xmlns:serif="http://www.serif.com/" style="fill-rule:evenodd;clip-rule:evenodd;stroke-linecap:round;stroke-linejoin:round;stroke-miterlimit:1.5;"><g><path d="M1805.087,1644.607c-135.957,-0 -249.534,103.561 -262.049,238.941c-87.051,941.62 -405.865,4390.185 -493.037,5333.11c-5.682,61.459 14.778,122.471 56.364,168.079c41.586,45.608 100.455,71.598 162.177,71.598c740.52,0 2935.056,0 2935.056,0c16.975,-0.234 53.035,-7.232 103.811,-19.514c363.62,-88.017 592.8,-447.52 519.117,-814.313c-73.683,-366.793 -423.917,-609.901 -793.319,-550.666c-14.041,2.248 -27.606,4.815 -40.666,7.706c-5.316,1.295 -10.925,-0.249 -14.829,-4.083c-3.904,-3.834 -5.55,-9.413 -4.351,-14.752c19.411,-86.613 86.01,-383.29 142.615,-635.451c77.101,-343.46 -16.743,-702.998 -251.867,-964.964c-235.124,-261.966 -582.466,-393.979 -932.232,-354.311c-129.876,14.646 -266.206,46.557 -407.257,98.346c-79.814,29.305 -200.184,13.802 -178.678,-46.778c0,0 515.99,-1508.595 748.383,-2188.039c25.645,-74.978 13.517,-157.724 -32.565,-222.189c-46.082,-64.465 -120.451,-102.719 -199.693,-102.719c-438.399,-0 -431.663,-0 -1056.981,-0Z" style="fill:#a5c0cc;stroke:#a5c0cc;stroke-width:187.5px;"/><path d="M3502.035,3731.557c0,0 422.281,-758.095 647.334,-1162.119c36.406,-65.357 97.35,-113.516 169.354,-133.824c72.003,-20.308 149.13,-11.092 214.321,25.61c209.967,118.21 510.67,287.505 722.988,407.039c55.442,31.213 91.12,88.563 94.618,152.091c3.499,63.528 -25.666,124.449 -77.345,161.561c-409.924,294.383 -1207.384,867.071 -1207.384,867.071c-235.727,-178.899 -312.606,-233.969 -563.885,-317.43Z" style="fill:#a5c0cc;stroke:#a5c0cc;stroke-width:187.5px;"/><path d="M2937.898,6705.914l193.011,-1.007c3.613,-202.999 167.982,-415.539 371.012,-415.539c0,0 2.104,-741.675 3.564,-1256.271c0.327,-115.243 -52.902,-224.098 -144.06,-294.606c-91.157,-70.508 -209.898,-94.666 -321.358,-65.382c-56.871,14.942 -95.389,25.061 -95.389,25.061l-6.781,2007.744Z" style="fill:#fff;stroke:#fff;stroke-width:166.67px;"/><path d="M1900.696,6705.914l556.965,0l2.254,-2007.744c0,0 -31.728,-16.275 -79.517,-40.788c-94.833,-48.644 -208.054,-44.908 -299.475,9.88c-91.421,54.789 -148.098,152.874 -149.913,259.44c-11.402,669.216 -30.313,1779.211 -30.313,1779.211Z" style="fill:#fff;stroke:#fff;stroke-width:166.67px;"/></g></svg>